# xmcd
#
# Track frame offsets:
#        150
#        32520
#        64055
#        89047
#        117845
#        139320
#        168655
#        192832
#        220482
#        241955
#        262462
#        282192
#        305212
#
# Disc length: 4452 seconds
#
# Revision: 4
# Processed by: cddbd v1.5PL3 Copyright (c) Steve Scherf et al.
# Submitted via: ExactAudioCopy v0.95a5
#
DISCID=d211620d
DTITLE=Aphex Twin - Classics
DYEAR=1995
DGENRE=Techno
TTITLE0=Digeridoo
TTITLE1=Flaphead
TTITLE2=Phloam
TTITLE3=Isopropanol
TTITLE4=Polynomial-C
TTITLE5=Tamphex (Hedphuq Mix)
TTITLE6=Phlange Phace
TTITLE7=Dodeccaheedron
TTITLE8=Analogue Bubblebath 1
TTITLE9=Metapharstic
TTITLE10=We have arrived (Aphex Twin QQT Mix)
TTITLE11=We have arrived (Aphex Twin TTQ Mix)
TTITLE12=Digeridoo (Live in Cornwall, 1990)
EXTD=R and S Records RS 95035 CD 1995\nAll tracks written and produced b
EXTD=y Richard D. James, \nexcept 11/12 (original by Mescalinum United
EXTD=, written\nand produced by The Mover]\n
EXTT0=
EXTT1=
EXTT2=
EXTT3=
EXTT4=
EXTT5=
EXTT6=
EXTT7=
EXTT8=
EXTT9=
EXTT10=
EXTT11=
EXTT12=
PLAYORDER=
